# xmcd
#
# Track frame offsets:
#	150
#	7906
#	20368
#	31028
#	42499
#	55374
#	66305
#	78251
#	93179
#	105348
#	118301
#	129991
#	142111
#	154428
#	167759
#	181078
#	194489
#	206572
#	217301
#	228396
#	243814
#	257521
#	270629
#	285265
#	300536
#
# Disc length: 4178 seconds
#
# Revision: 0
# Processed by: cddbd v1.5.1PL2 Copyright (c) Steve Scherf et al.
# Submitted via: audiograbber 1.83.01
#
DISCID=58105019
DTITLE=Various Artist - 100 Chartbusters [CD 4/4)
DYEAR=2002
DGENRE=Oldies
TTITLE0=1947 Bob Wills - Cotton eyed Joe
TTITLE1=1947 Wynonie Harris - Good rockin' tonight
TTITLE2=1947 Smokey Hogg - Good morning little schoolgirl
TTITLE3=1947 Woody Herman - Sabre dance
TTITLE4=1947 Johnny Mercer - Zip-a-dee-doo - dah
TTITLE5=1948 K.C. Douglas - Mercury boogie
TTITLE6=1948 Red Foley - Tennessee Saturday night
TTITLE7=1948 Ella Fitzgerald - My happiness
TTITLE8=1948 Dinah Washington - You can depend on me
TTITLE9=1949 Johnnie Lee Wills - Rag mop
TTITLE10=1949 Tommy Duncan - Chattanooga shoe shine boy
TTITLE11=1949 Hank Williams - Lost highway
TTITLE12=1949 Leon Payne - I love you because
TTITLE13=1949 Vaughn Monroe - Riders in the sky
TTITLE14=1949 Vaughn Monroe - Red roses for a blue lady
TTITLE15=1949 Ezio Pinza - Some enchanted evening
TTITLE16=1949 Dinah Washington - It's too soon to know
TTITLE17=1950 Hank Williams - Moanin' the Blues
TTITLE18=1950 Eddie Miller - Release me
TTITLE19=1950 Nat 'King' Cole - Mona Lisa
TTITLE20=1950 Patty Page - Tennessee Waltz
TTITLE21=1951 Hank Williams - Hey good lookin'
TTITLE22=1951 Gene Autry - South of the border
TTITLE23=1951 Spade Cooley - Hillbilly fever
TTITLE24=1951 Hank Williams - Jambalaya
EXTD=
EXTT0=
EXTT1=
EXTT2=
EXTT3=
EXTT4=
EXTT5=
EXTT6=
EXTT7=
EXTT8=
EXTT9=
EXTT10=
EXTT11=
EXTT12=
EXTT13=
EXTT14=
EXTT15=
EXTT16=
EXTT17=
EXTT18=
EXTT19=
EXTT20=
EXTT21=
EXTT22=
EXTT23=
EXTT24=
PLAYORDER=
